<svg width="16" height="16" viewBox="0 0 16 16" fill="none" xmlns="http://www.w3.org/2000/svg">
<path d="M9.76552 1L13.2345 3L12.5625 4.172C12.7919 4.443 13.0002 4.73983 13.1875 5.0625C13.3749 5.38517 13.5312 5.7185 13.6565 6.0625H15.0005V10.0625H13.6565C13.4065 10.7605 13.0419 11.3907 12.5625 11.953L13.2345 13.125L9.76552 15.125L9.09352 13.953C8.36419 14.0883 7.63502 14.0883 6.90602 13.953L6.23402 15.125L2.76502 13.125L3.43702 11.953C3.19736 11.6717 2.98636 11.3722 2.80402 11.0545C2.62169 10.7368 2.46802 10.4062 2.34302 10.0625H0.999023V6.0625H2.34302C2.59302 5.3645 2.95769 4.73433 3.43702 4.172L2.76502 3L6.23402 1L6.90602 2.172C7.63536 2.03667 8.36452 2.03667 9.09352 2.172L9.76552 1ZM10.1405 2.3595L9.95302 2.672L9.60902 3.2815L8.90602 3.1565C8.30169 3.04183 7.69752 3.04183 7.09352 3.1565L6.39052 3.2815L5.85902 2.3595L4.14002 3.3595L4.65552 4.2815L4.20252 4.813C3.80652 5.28167 3.50436 5.80767 3.29602 6.391L3.06152 7.063H1.99902V9.063H3.04602L3.29602 9.735C3.40036 10.037 3.52536 10.313 3.67102 10.563C3.81669 10.813 3.99386 11.063 4.20252 11.313L4.65552 11.8445L4.14002 12.7665L5.85902 13.7665L6.39052 12.8445L7.09352 12.9695C7.69786 13.0842 8.30202 13.0842 8.90602 12.9695L9.60902 12.8445L10.1405 13.7665L11.8595 12.7665L11.344 11.8445L11.797 11.313C12.193 10.8337 12.4952 10.3077 12.7035 9.735L12.938 9.063H14.0005V7.063H12.9535L12.7035 6.391C12.6099 6.10967 12.4849 5.83617 12.3285 5.5705C12.1722 5.30483 11.995 5.05217 11.797 4.8125L11.344 4.281L11.8595 3.359L10.1405 2.3595ZM8.00002 4.5625C8.98969 4.5835 9.81519 4.92467 10.4765 5.586C11.1379 6.24733 11.479 7.07283 11.5 8.0625C11.479 9.05217 11.1379 9.87767 10.4765 10.539C9.81519 11.2003 8.98969 11.5415 8.00002 11.5625C7.01036 11.5415 6.18486 11.2003 5.52352 10.539C4.86219 9.87767 4.52102 9.05217 4.50002 8.0625C4.52102 7.07283 4.86219 6.24733 5.52352 5.586C6.18486 4.92467 7.01036 4.5835 8.00002 4.5625ZM8.00002 5.5625C7.29169 5.5835 6.70319 5.82833 6.23452 6.297C5.76586 6.76567 5.52102 7.35417 5.50002 8.0625C5.52102 8.77083 5.76586 9.35933 6.23452 9.828C6.70319 10.2967 7.29169 10.5415 8.00002 10.5625C8.70836 10.5415 9.29686 10.2967 9.76552 9.828C10.2342 9.35933 10.479 8.77083 10.5 8.0625C10.479 7.35417 10.2342 6.76567 9.76552 6.297C9.29686 5.82833 8.70836 5.5835 8.00002 5.5625Z" fill="#838D9A"/>
</svg>
